<svg xmlns="http://www.w3.org/2000/svg" shape-rendering="geometricPrecision" text-rendering="geometricPrecision" image-rendering="optimizeQuality" fill-rule="evenodd" clip-rule="evenodd" viewBox="0 0 39.35 27.42"><g fill-rule="nonzero"><path fill="#007934" d="M2.23.08h34.89c1.18 0 2.15.97 2.15 2.15v22.96c0 1.18-.97 2.15-2.15 2.15H2.23a2.16 2.16 0 01-2.15-2.15V2.23c0-1.18.97-2.15 2.15-2.15z"/><path fill="#F9E300" d="M.08 18.32h39.19V2.23c0-1.18-.97-2.15-2.15-2.15H2.23C1.05.08.08 1.05.08 2.23v16.09z"/><path fill="#D52B1E" d="M.08 9.1h39.19V2.23c0-1.18-.97-2.15-2.15-2.15H2.23C1.05.08.08 1.05.08 2.23V9.1z"/><path fill="#CCC" d="M2.23 0h34.89c.61 0 1.17.25 1.57.66.41.4.66.96.66 1.57v22.96c0 .61-.25 1.17-.66 1.57-.4.41-.96.66-1.57.66H2.23c-.61 0-1.17-.25-1.57-.65-.41-.41-.66-.97-.66-1.58V2.23C0 1.62.25 1.06.66.66 1.06.25 1.62 0 2.23 0zm34.89.15H2.23C1.66.15 1.14.39.76.76c-.37.38-.61.9-.61 1.47v22.96c0 .57.24 1.09.61 1.47.38.37.9.61 1.47.61h34.89c.57 0 1.09-.24 1.47-.61.37-.38.61-.9.61-1.47V2.23c0-.57-.24-1.09-.61-1.47-.38-.37-.9-.61-1.47-.61z"/></g></svg>