<svg width="131" height="204" viewBox="0 0 131 204" fill="none" xmlns="http://www.w3.org/2000/svg">
<path d="M0.320471 144C-2.87058 116 18.8205 85 18.8205 85C18.8205 85 22.1105 94.3995 25.8205 98.5C29.5305 102.601 38.3205 106 38.3205 106C38.3205 106 31.3205 67.5 41.8205 44C52.3205 20.5 77.3205 0 77.3205 0C77.3205 0 68.233 22.2192 90.3204 56C98.8204 69 132.717 116.5 130.82 144C128.924 171.5 106.32 193 92.3205 200.5C100.32 194.368 108.32 181.5 108.32 167.5C108.32 153.5 94.3204 133 83.3204 117C70.8955 98.9274 63.3204 82 63.3204 82C63.3204 82 57.3204 93.9262 57.3204 103.5C57.3204 114 66.3204 141.46 50.3204 153.5C41.1854 160.374 24.3204 155 24.3204 155C24.3204 155 16.3204 185.326 41.8205 203.5C25.8205 194 3.68247 173.5 0.320471 144Z" fill="#673AB7"/>
</svg>
