<svg xmlns="http://www.w3.org/2000/svg" shape-rendering="geometricPrecision" text-rendering="geometricPrecision" image-rendering="optimizeQuality" fill-rule="evenodd" clip-rule="evenodd" viewBox="0 0 39.35 27.42"><g fill-rule="nonzero"><path fill="#E70013" d="M2.23.08h34.89c1.18 0 2.15.97 2.15 2.15v22.96c0 1.18-.97 2.15-2.15 2.15H2.23a2.16 2.16 0 01-2.15-2.15V2.23c0-1.18.97-2.15 2.15-2.15z"/><path fill="#fff" d="M26.59 13.71c0-3.82-3.09-6.92-6.92-6.92-3.82 0-6.91 3.1-6.91 6.92s3.09 6.92 6.91 6.92c3.83 0 6.92-3.1 6.92-6.92z"/><path fill="#E70013" d="M23.87 10.66a5.165 5.165 0 00-4.2-2.14c-2.86 0-5.18 2.32-5.18 5.19 0 2.87 2.32 5.19 5.18 5.19 1.73 0 3.26-.84 4.2-2.14-.74.69-1.73 1.1-2.81 1.1-2.29 0-4.15-1.86-4.15-4.15s1.86-4.15 4.15-4.15c1.08 0 2.07.41 2.81 1.1z"/><path fill="#E70013" d="M17.94 13.71l5.64-1.83-3.48 4.79v-5.92l3.48 4.79z"/><path fill="#CCC" d="M2.23 0h34.89c.61 0 1.17.25 1.57.66.41.4.66.96.66 1.57v22.96c0 .61-.25 1.17-.66 1.57-.4.41-.96.66-1.57.66H2.23c-.61 0-1.17-.25-1.57-.65-.41-.41-.66-.97-.66-1.58V2.23C0 1.62.25 1.06.66.66 1.06.25 1.62 0 2.23 0zm34.89.15H2.23C1.66.15 1.14.39.76.76c-.37.38-.61.9-.61 1.47v22.96c0 .57.24 1.09.61 1.47.38.37.9.61 1.47.61h34.89c.57 0 1.09-.24 1.47-.61.37-.38.61-.9.61-1.47V2.23c0-.57-.24-1.09-.61-1.47-.38-.37-.9-.61-1.47-.61z"/></g></svg>